<?xml version="1.0" encoding="UTF-8"?>
<svg id="Layer_2" data-name="Layer 2" xmlns="http://www.w3.org/2000/svg" viewBox="0 0 279.89 279.89">
  <g id="Layer_1-2" data-name="Layer 1">
    <circle cx="139.94" cy="139.94" r="139.94" style="fill: #004785; stroke-width: 0px;"/>
    <path d="M210.02,217.39c-18.48-.19-32.13-8.69-41.86-24.12-.87-1.39-2.43-2.34-3.68-3.49-1.08,1.38-2.76,2.61-3.13,4.16-1.13,4.8-2.23,9.7-2.48,14.6-.45,8.57-.27,17.17-.36,25.76-.02,1.43.35,3.06-.2,4.25-1.05,2.26-2.35,4.63-4.2,6.14-.55.45-3.62-1.54-5.03-2.93-8.55-8.4-16.84-17.07-25.46-25.4-8.27-8-10.33-17.68-9.02-28.67.83-6.98,1.14-14.02,1.69-21.03.23-2.9-1.35-4.65-3.74-5.86-16.76-8.47-29.97-21.11-40.87-36.06-7.09-9.72-12.29-20.57-16.11-32.14-4.68-14.19-5.62-28.69-5.39-43.4.05-3.42,2-5.71,5.1-5.67,15.28.22,30.49,1.29,45.1,6.18,21.96,7.35,40.65,19.7,55.18,37.84,4.97,6.2,9.06,13.13,13.32,19.87,2.72,4.31,4.36,5.15,9.05,3.64,1.11-.36,2.3-.54,3.47-.65,5.43-.5,10.85-1.08,16.29-1.38,7.04-.38,13.95,1.05,19.33,5.51,8.54,7.07,16.44,14.91,24.56,22.49,2.77,2.59,5.44,5.29,8.01,8.07,2.58,2.79,1.95,5.51-1.61,6.88-1.51.58-3.22.82-4.86.89-12.27.55-24.53,1.05-36.8,1.5-4.95.18-9.28,1.87-13.07,4.99-2.59,2.14-2.32,2.94.28,5.11,5.52,4.58,11.48,8.86,16.1,14.25,8.7,10.15,11.86,22.34,9.96,35.64-.16,1.14-1.92,2.61-3.17,2.91-2.03.49-4.26.13-6.41.13ZM149.66,230.17c.26-2.91.55-4.86.58-6.82.09-6.2.06-12.4.1-18.59.07-9.53,3-17.8,10.12-24.53,7.66-7.25,15.36-14.51,22.42-22.33,8.71-9.66,19.44-13.44,32.05-13.26,5.6.08,11.2-.03,16.8-.18.93-.02,1.84-.7,2.77-1.08-.4-.89-.6-1.98-1.24-2.62-5.45-5.43-10.87-10.9-16.52-16.1-4.28-3.94-9.25-6.86-15.36-6.49-8.8.52-17.6,1.11-26.36,2.03-7.56.79-7.74.73-11.79-5.61-5.08-7.96-9.84-16.25-15.83-23.49-12.2-14.73-27.72-25.32-45.77-31.52-8.82-3.03-18.26-4.28-27.46-6.09-3.48-.68-7.11-.59-10.65-1.01-3.95-.47-4.65.03-4.95,3.91-.58,7.56.78,14.85,2.4,22.22,3.9,17.7,11.32,33.55,22.76,47.65,9.73,12,21.72,21.12,35.08,28.52,5.82,3.22,6.35,3.62,5.89,10.12-.68,9.72-1.21,19.45-1.85,29.18-.39,5.89,1.51,10.96,5.57,15.14,5.83,6.01,11.79,11.9,17.71,17.82.88.88,1.85,1.66,3.55,3.16ZM207.87,209.59c2.01-.32,4.69.03,4.3-3.28-.32-2.69-.91-5.38-1.63-8-3.63-13.08-12.73-21.49-24-28.06-1.95-1.14-3.47-1.07-5.06.54-2.41,2.43-4.91,4.77-7.34,7.17-2.49,2.46-3.36,5.05-.92,8.15,1.38,1.75,2.39,3.8,3.73,5.58,7.77,10.29,18.04,16.3,30.92,17.89Z" style="fill: #fff; stroke-width: 0px;"/>
    <path d="M131.62,105.65c1.34,9.04-8.55,20.37-20.66,20.02-10.32-.3-19.14-11.23-19.59-20.39-.46-9.5,11.77-20.6,19.92-20.32,11.27.39,21.13,9.23,20.33,20.68ZM111.8,93.51c-5.42-.04-11.95,6.35-11.89,11.62.06,5.61,5.94,12.23,11.17,12.02,7.65-.3,12.59-4.88,12.93-12,.23-4.88-6.46-12.65-12.21-11.65Z" style="fill: #fff; stroke-width: 0px;"/>
  </g>
</svg>